<?xml version="1.0"?>
<svg version="1.1" xmlns="http://www.w3.org/2000/svg" width="198" height="59" style=""><path fill="#ff0009" d="M30.148,38.516q-1.68,0-2.828-0.77t-1.148-1.946q0-1.484,1.932-2.968q0.336-0.252,0.504-0.252t0.168,0.112q0,0.28-0.448,0.448q-1.568,1.26-1.568,2.548q0,0.924,0.84,1.554t2.1,0.63q2.744,0,5.18-2.632q1.26-1.372,1.26-3.164t-1.344-2.66q-1.12-0.784-3.024-0.784q-2.744,0-5.516,1.372q-3.416,1.652-6.174,5.138t-2.758,6.706q0,2.548,1.736,3.934t4.312,1.386q2.94,0,5.768-1.428q2.156-1.12,3.724-2.856q0.448-0.504,0.7-0.504q0.168,0,0.168,0.294t-0.308,0.602q-1.484,1.568-4.284,3.024q-3.444,1.82-6.93,1.82t-5.194-2.296q-1.148-1.512-1.148-3.612q0-0.924,0.224-1.988q0.756-3.584,3.976-6.972q2.324-2.436,5.516-3.794t6.048-1.358q1.512,0,2.632,0.364q3.052,0.952,3.052,3.836q0,1.764-1.036,3.052q-2.576,3.164-6.132,3.164z M43.87276,40.364q0,0.98-1.876,3.276q-2.212,2.716-3.78,2.716l-0.448,0q-0.728,0-1.148-0.756q-0.336-0.532-0.336-1.176q0-1.68,2.45-4.718t3.962-3.038q1.428,0,1.428,1.512q0,0.392-0.14,1.008q0.028,0.084,0.532,0.084t1.54-0.532q-0.028,0.476-2.212,1.372q0.028,0.112,0.028,0.252z M42.05276,38.908q-0.952,0-2.702,2.24t-1.75,3.304t0.672,1.064q1.204,0,3.052-2.184t1.848-3.136q-0.448-0.252-1.12-1.288z M49.11352,44.956q-1.792,1.232-2.856,1.232q-1.372,0-1.372-1.512q0-1.176,1.484-2.912q1.316-1.456,2.604-2.184q3.08-1.708,5.012-1.708q0.616,0,0.756,0.476l0,0.896q0.476,0.364,0.476,0.462t-0.084,0.21l-2.212,2.1q-2.1,2.156-2.884,3.948q0.168-0.056,0.924-0.056t1.176,0.658t0.42,1.302q0,1.344-1.176,3.164q-1.288,2.044-2.8,2.044q-1.456,0-1.456-2.156q0-1.316,0.7-2.968z M53.31352,39.272q-1.428,0-4.298,1.862t-3.262,3.794q-0.028,0.084-0.028,0.168q0,0.532,0.672,0.532q1.4,0,3.752-2.436l3.528-3.752q-0.056-0.168-0.364-0.168z M49.75752,46.552q-0.532,0.84-1.148,2.408t-0.616,2.128t0.224,0.994t0.616,0.434q1.036,0,1.82-1.792t0.784-2.688t-0.392-1.176t-1.288-0.308z M64.04228,46.468q-0.14,0.028-0.602,0.028t-0.924-0.364t-0.462-0.938t0.21-1.274t0.294-1.064q-3.22,3.752-5.04,3.752q-1.148,0-1.26-1.428l0-0.196q0-1.204,1.456-3.248q-0.812,0.728-1.652,1.68q-0.112,0.112-0.28,0.112q-0.112,0-0.112-0.14t0.252-0.476l3.864-4.536q0.728-0.84,1.484-0.84t0.756,0.504q0,0.196-0.168,0.364q-1.12,1.036-2.814,3.444t-1.694,3.556q0,0.504,0.336,0.504q1.176,0,3.416-2.324q0.784-0.784,2.912-3.458t2.8-2.674q1.008,0,1.008,0.784q0,0.28-1.176,1.624q-1.596,1.932-2.436,3.15t-0.84,1.974t0.42,0.756q0.196,0,0.448-0.112q1.932-0.84,4.62-3.92q0.168-0.196,0.336-0.196t0.168,0.182t-0.196,0.406q-1.204,1.4-2.828,2.814t-2.296,1.554z M70.76704,46.664q-0.308,0-0.56-0.084q-1.792-0.504-1.792-2.016q0-1.96,2.464-4.536t4.424-2.576q0.644,0,1.05,0.35t0.406,0.854q0,1.568-2.366,2.996t-3.85,1.428q-0.224,0-0.392-0.056q-0.42,0.756-0.42,1.596q0,1.456,1.386,1.456t3.598-1.876q1.708-1.372,2.912-2.912q0.252-0.336,0.434-0.336t0.182,0.168t-0.224,0.476q-1.512,1.988-3.64,3.528t-3.612,1.54z M76.05904,38.6q0-0.336-0.714-0.336t-2.03,1.092q-1.764,1.456-2.744,3.052q0.168,0.056,0.364,0.056q1.064,0,2.842-1.134t2.226-2.478q0.056-0.14,0.056-0.252z M78.5558,44.424q0-3.024,1.792-5.992q-2.072-1.316-2.072-3.892q0-3.108,2.744-5.516q3.08-2.716,7.952-2.716q2.24,0,4.816,0.644q0.588,0.14,5.012,2.17t6.356,2.03q1.288,0,1.932-0.728q0.336-0.364,0.336-0.784t-0.364-0.756q-0.196-0.28-0.196-0.364t0.154-0.084t0.532,0.49t0.378,1.148t-0.882,1.26t-2.226,0.602q-2.1,0-6.524-2.03t-5.558-2.254t-2.59-0.224q-5.796,0-9.128,3.752q-0.392,0.42-0.924,1.694t-0.532,2.45q0,1.624,1.148,2.52q1.456-2.128,3.444-3.388t4.032-1.26q2.52,0,2.52,1.96q0,2.352-2.758,5.11t-5.11,2.758q-1.512,0-1.512-1.288q0-0.448,0.238-0.784t0.574-0.252l-0.056,0.644q0,0.42,1.288,0.42q1.904,0,4.018-1.96t2.562-3.836q0.112-0.42,0.112-0.756q0-1.26-1.61-1.26t-3.332,1.232t-3.234,3.248q0.112,0.056,0.868,0.224l1.68,0.056q1.232,0.056,1.232,0.28q0,0.392-1.176,0.392l-0.168,0q-1.708,0-2.8-0.42q-2.156,3.304-2.156,6.076q0,3.584,2.772,3.584q3.136,0,6.524-4.368l5.488-8.176q3.08-4.48,5.348-4.592l1.064,0.252q0.504,0.28,0.504,0.84t-0.28,0.56l-0.896-0.14q-1.932,0-4.956,4.172l-5.572,7.784q-3.584,4.172-6.86,4.172q-2.24,0-3.094-1.204t-0.854-3.5z M98.94456,46.664q-0.308,0-0.56-0.084q-1.792-0.504-1.792-2.016q0-1.96,2.464-4.536t4.424-2.576q0.644,0,1.05,0.35t0.406,0.854q0,1.568-2.366,2.996t-3.85,1.428q-0.224,0-0.392-0.056q-0.42,0.756-0.42,1.596q0,1.456,1.386,1.456t3.598-1.876q1.708-1.372,2.912-2.912q0.252-0.336,0.434-0.336t0.182,0.168t-0.224,0.476q-1.512,1.988-3.64,3.528t-3.612,1.54z M104.23656,38.6q0-0.336-0.714-0.336t-2.03,1.092q-1.764,1.456-2.744,3.052q0.168,0.056,0.364,0.056q1.064,0,2.842-1.134t2.226-2.478q0.056-0.14,0.056-0.252z M107.96532,45.74q0.924,0,2.38-0.98t2.828-2.66q0.336-0.448,0.532-0.448t0.196,0.168t-1.148,1.456q-2.8,3.08-4.676,3.08q-0.924,0-1.568-0.434t-0.644-1.344t0.476-2.114q0.812-1.904,2.604-4.788q3.276-5.32,4.648-5.32q0.28,0,0.574,0.21t0.322,0.462q-0.644,0.868-2.478,3.332t-2.534,3.542t-1.05,1.61t-0.518,0.826t-0.392,0.77q-0.476,0.952-0.476,1.792t0.924,0.84z"/><path fill="#000000" d="M122.63008,42.38l0-15.12l-2.38-0.56l0-1.54l5.32-0.14l3.5,0c5.46,0,8.82,3.36,8.82,9.52s-3.64,10.08-9.24,10.08l-8.4,0l0-1.68z M125.57008,42.38l3.22,0c3.5,0,5.88-2.38,5.88-7.7c0-5.18-2.24-7.42-5.74-7.42l-3.36,0l0,15.12z M144.85088,42.38l0-15.12l-2.38-0.56l0-1.54l5.18-0.14l3.22,0c3.5,0,6.02,1.54,6.02,4.9c0,2.52-1.288,3.948-3.64,4.536c2.94,0.672,4.34,2.324,4.34,4.564c0,3.92-2.52,5.6-7.14,5.6l-7.98,0l0-1.68z M147.65088,33.42l2.1,0c2.52,0,4.2-0.98,4.2-3.22c0-1.96-1.4-2.94-3.22-2.94l-3.08,0l0,6.16z M147.65088,42.38l2.94,0c2.66,0,4.06-1.12,4.06-3.22c0-2.8-1.82-3.64-4.9-3.64l-2.1,0l0,6.86z"/></svg>
